<?xml version="1.0" encoding="UTF-8" standalone="no"?>
<!-- Created with Inkscape (http://www.inkscape.org/) -->

<svg
   width="210mm"
   height="297mm"
   viewBox="0 0 210 297"
   version="1.1"
   id="svg1491"
   inkscape:version="1.1 (c4e8f9e, 2021-05-24)"
   sodipodi:docname="enkire.svg"
   xmlns:inkscape="http://www.inkscape.org/namespaces/inkscape"
   xmlns:sodipodi="http://sodipodi.sourceforge.net/DTD/sodipodi-0.dtd"
   xmlns="http://www.w3.org/2000/svg"
   xmlns:svg="http://www.w3.org/2000/svg">
  <sodipodi:namedview
     id="namedview1493"
     pagecolor="#ffffff"
     bordercolor="#666666"
     borderopacity="1.0"
     inkscape:pageshadow="2"
     inkscape:pageopacity="0.0"
     inkscape:pagecheckerboard="0"
     inkscape:document-units="mm"
     showgrid="false"
     inkscape:zoom="0.57638187"
     inkscape:cx="397.30604"
     inkscape:cy="561.25984"
     inkscape:window-width="1312"
     inkscape:window-height="869"
     inkscape:window-x="0"
     inkscape:window-y="38"
     inkscape:window-maximized="0"
     inkscape:current-layer="layer1" />
  <defs
     id="defs1488" />
  <g
     inkscape:label="Layer 1"
     inkscape:groupmode="layer"
     id="layer1">
    <path
       style="fill:#2f6edc;fill-opacity:1;stroke-width:0.459041"
       d="m 89.98766,218.63882 c -0.04696,-0.0469 -2.147086,-0.41447 -4.666961,-0.81675 -10.237806,-1.63441 -19.60998,-5.45119 -30.881029,-12.57618 -2.850936,-1.80221 -5.381403,-3.27676 -5.623261,-3.27676 -0.241858,0 -0.439743,-0.17664 -0.439743,-0.39253 0,-0.21589 -1.291055,-1.28948 -2.869012,-2.38576 -1.577953,-1.09628 -2.972294,-2.11486 -3.09853,-2.26352 -0.126238,-0.14865 -1.778788,-1.536 -3.672334,-3.08298 -6.515862,-5.3233 -13.771454,-13.33699 -18.103802,-19.99538 -4.945345,-7.60051 -7.419513,-14.0593 -8.987448,-23.46166 l -0.982082,-5.88921 0.975114,-5.80737 c 1.099919,-6.55066 2.258351,-10.80814 4.171864,-15.33248 0.720767,-1.7042 1.164762,-3.1017 0.986657,-3.10556 -0.178105,-0.004 -0.0969,-0.1588 0.180463,-0.34429 0.465723,-0.31145 1.518189,-2.06429 4.06125,-6.76383 3.49006,-6.44958 12.633761,-17.206789 18.845587,-22.171089 1.767311,-1.41238 3.316576,-2.69268 3.442814,-2.84511 0.126236,-0.15243 1.36565,-0.9652 2.754249,-1.80616 1.388602,-0.84096 2.628016,-1.65687 2.754252,-1.81314 0.126235,-0.15627 0.436089,-0.32709 0.688562,-0.37959 0.252473,-0.0525 2.111592,-0.81761 4.131376,-1.70022 3.833958,-1.67539 7.895513,-2.89148 11.017001,-3.29868 1.009891,-0.13173 2.352588,-0.40357 2.983773,-0.60408 1.071149,-0.34028 11.044028,-0.26071 13.082688,0.10437 8.726447,1.56274 16.737541,4.19101 23.411122,7.68071 6.7336,3.52107 16.11493,9.80028 20.86587,13.966159 14.78295,12.96249 21.85989,23.21723 25.35273,36.737 1.49949,5.80412 1.37635,15.82796 -0.27521,22.40275 -0.68515,2.72755 -1.93377,6.65235 -2.77473,8.7218 -1.9875,4.89089 -1.94085,4.79081 -3.37705,7.24614 -0.67765,1.15852 -1.61969,2.81107 -2.09341,3.67234 -1.45441,2.64422 -9.12984,13.2715 -9.5852,13.2715 -0.45979,0 -1.61716,-0.76973 -6.30851,-4.19558 -4.14544,-3.02719 -15.97933,-11.58571 -17.79969,-12.87311 -0.82704,-0.58491 -1.94314,-1.42496 -2.48021,-1.86678 -0.53708,-0.44183 -1.09982,-0.80358 -1.25054,-0.80389 -0.15072,-2.6e-4 -0.82287,-0.46509 -1.49367,-1.03284 -0.67079,-0.56776 -1.6759,-1.34214 -2.23357,-1.72085 -0.55768,-0.37871 -1.454829,-1.02388 -1.993669,-1.43371 -1.514306,-1.15174 -20.260974,-14.77421 -21.400407,-15.55083 -0.555633,-0.37871 -1.559065,-1.15309 -2.229858,-1.72085 -0.670793,-0.56776 -1.342946,-1.03254 -1.493668,-1.03284 -0.15072,-2.7e-4 -0.770427,-0.43429 -1.377125,-0.96441 -0.606697,-0.53011 -2.135925,-1.67305 -3.39829,-2.53986 -1.262364,-0.86682 -4.122864,-2.91191 -6.356667,-4.54466 -2.233803,-1.63275 -4.253095,-2.96863 -4.487323,-2.96863 -0.681241,0 -3.942228,5.43122 -5.512313,9.18083 -2.509187,5.99234 -2.56409,12.36018 -0.149127,17.29619 2.596105,5.30625 10.341533,12.03572 17.147831,14.89858 7.619772,3.20502 15.823398,1.70845 20.391043,-3.71988 1.314741,-1.56248 1.504902,-1.62838 2.359607,-0.81763 0.3327,0.3156 1.092578,0.92453 1.688616,1.35319 0.596042,0.42866 3.705042,2.70092 6.90889,5.04946 3.20385,2.34854 6.99482,5.09635 8.42439,6.10624 1.42957,1.00989 4.75777,3.43708 7.396,5.39374 2.63823,1.95667 4.89811,3.55757 5.02195,3.55757 0.2451,0 0.47821,0.18282 3.07257,2.40963 l 1.73854,1.49223 -4.14851,4.34478 c -2.28168,2.38963 -4.14851,4.46281 -4.14851,4.60706 0,0.14426 7.43643,0.25479 16.52541,0.24564 l 16.5254,-0.0167 1e-4,-18.75506 c 8e-5,-16.91354 0.0714,-18.72771 0.7262,-18.47643 0.39936,0.15325 11.24034,0.27863 24.09108,0.27863 h 23.36497 l 0.12337,22.37829 c 0.0679,12.30805 0.0904,22.44568 0.0501,22.52806 -0.0753,0.1539 -109.416482,0.37736 -109.56998,0.22393 z m 19.46813,-72.09898 c 3.4464,-5.43172 4.05377,-13.0993 1.47052,-18.56425 -0.75289,-1.59277 -2.23852,-3.87368 -3.30139,-5.0687 -2.60378,-2.92747 -8.959279,-7.08183 -12.965433,-8.47503 -2.822503,-0.98157 -3.905728,-1.11603 -7.906911,-0.98145 -4.191527,0.14098 -4.934826,0.30559 -7.747434,1.71565 -1.7111,0.85784 -4.396496,2.76526 -5.967542,4.23871 -2.533499,2.3761 -2.77123,2.74455 -2.102697,3.25885 0.41456,0.31892 2.88852,2.12912 5.497677,4.02267 2.609162,1.89355 5.6285,4.11416 6.709648,4.9347 1.081143,0.82053 2.081974,1.49188 2.224056,1.49188 0.142089,0 0.51767,0.25822 0.834636,0.5738 0.316957,0.3156 3.304365,2.53621 6.638679,4.9347 3.33431,2.3985 7.759661,5.63942 9.834111,7.20206 2.07446,1.56263 4.13778,2.85369 4.58516,2.86901 0.48711,0.0167 1.36846,-0.8469 2.19692,-2.1526 z"
       id="path1360" />
  </g>
</svg>
